<svg xmlns="http://www.w3.org/2000/svg" viewBox="0 0 3789.06 1549.4"><defs><style>.cls-1{fill:#e2b897;}.cls-2{fill:#f8bd8c;}.cls-3{fill:#31185e;}.cls-4{fill:#2a1656;}.cls-5{fill:#1d1647;}.cls-6{fill:#eab186;}.cls-7{fill:#1a1a1a;}.cls-8{fill:#fcfcfc;}.cls-9{fill:#666b6d;}.cls-10{fill:#c5a2fd;}.cls-11{fill:#f2b588;}.cls-12{fill:#1b191b;}.cls-13{fill:#9e4aff;}.cls-14{fill:#2c2a30;}.cls-15{fill:#755faa;}.cls-16{fill:#ff7c90;}.cls-17{fill:#b08174;}.cls-18{fill:#fff;}.cls-19{fill:#0b0635;}.cls-20{fill:#ccdde7;}.cls-21{fill:#dc4070;}.cls-22{fill:#080305;}.cls-23{fill:#231347;}.cls-24{fill:#ababab;}.cls-25{fill:#190444;}.cls-26{fill:#8e8d8e;}.cls-27{fill:#d1d1d3;}.cls-28{fill:#999;}.cls-29{fill:#333;}</style></defs><g id="Layer_2" data-name="Layer 2"><g id="Layer_1-2" data-name="Layer 1"><path class="cls-1" d="M607.1,1547.8H81.73L91,1290l.27-7.8.06-1.61,432-19.75,62-2.82,1.8,24,7.92,105.81v.15l2.87,38.44h0l1.26,16.73,7.82,104.57"/><path class="cls-1" d="M356.71,1547.8H81.53l4.94-262,.1-5.21,4.72,1.61,50.35,17.31,125.09,43,.2.06L349.78,1371l6.93,176.78"/><path class="cls-2" d="M410.65,601.12l-151,17.69L256,517.15l-.26-7-.49-13.37L378.74,482.3l8-.94,6.75,33.89,17.12,85.87"/><path class="cls-3" d="M236.4,585.49s-175.94,73.31-180.82,88-24.44,56.2-24.44,56.2,85.53,207.72,63.53,278.58-7.33,188.16-7.33,224.81-14.66,51.32,12.22,61.09,114.85,4.88,163.72,0,149.06,1.51,171.05,5.64,154-17.86,154-17.86,17.11-92.86,12.22-139.28,1.76-156.4.88-173.5,8.37-24.44.08-66,33.25-268.8,33.25-268.8L431.89,560.44l-195.49,25"/><path class="cls-4" d="M328.29,576.92l-25.38,84.85L191.26,605.44l27.07-28.52h110"/><path class="cls-5" d="M194.56,604.87l107.12,54,23.92-80H219.18Zm109.58,59.77L188,606l29.51-31.09H331l-26.83,89.72"/><path class="cls-4" d="M306.52,576.92l34.22,84.85,127.35-89.68-30.41-32.78L306.52,576.92"/><path class="cls-5" d="M309.2,578.23l32.45,80.46,123.42-86.92-28-30.2Zm30.62,86.63-36-89.25,134.48-38.56,32.81,35.36-131.3,92.45"/><path class="cls-3" d="M118.22,637.37s75.17,29.11,68.28,323.91l273.84-62.86,33.57,138.74s-300.52,130-378.52,127.89S-13.08,807.38,3,768.36s20.47-94.59,112.24-129.28l3-1.71"/><path class="cls-2" d="M474.84,905.46l70.55-26.4-17.5,106.53-55.15,2.76L460.67,912.9l14.17-7.44m-220,44.18-57.67,13.3-2.29-14-3.81-23.17,3.95,1.48,59.82,22.37"/><path class="cls-3" d="M570.73,652.69,525.54,974.26,238.63,935.67l-33.9,141.48s388.59,94.33,465.39,68.6,40.67-379.43,20.34-424.46-34.07-80.23-61.17-88.8-58.56,20.2-58.56,20.2"/><path class="cls-6" d="M393.53,515.25c-6,13.86-16.56,26.72-32.84,32.56-35.9,12.91-80.8-14-104.74-30.66l-.26-7c2.07.32,4.41.61,7.05.82,15.82,1.31,39.42.9,69.1-6.53,21.23-5.3,36.41-13.89,46.9-22.14l8-.94,6.75,33.89"/><path class="cls-2" d="M411,350.11c6.59,83.29-32.77,154.52-93.93,159.36S201,450.71,194.42,367.42s37.66-154.74,98.82-159.58,111.2,59,117.78,142.27"/><path class="cls-7" d="M327.4,532.81c-58.55,8.7-115.92-51.81-128.24-135-1.17-8-1.86-15.93-2.25-23.76,13.69,80.84,70.19,139,127.66,130.49,52.78-7.81,88.36-69.2,85.82-142.22.29,1.37.49,2.74.68,4.1C423.39,449.63,386,524.11,327.4,532.81M240.48,166s-.7,61.91,14.71,70.87,33-7.34,47-9.78,42.32-4.85,62.17,12.44,36.87,67.72,36.87,67.72l4.36,16.89s11.6,2.94,12.82-13-2-82.46,0-89,1.22-13-6.11-20.36-16.7-18.73-13.84-23.63,15.06-17.5,3.25-28.5-68.83-17.92-79.42-8.15S272.24,113.88,240.48,166"/><path class="cls-7" d="M229.68,170.69s-55.59,6.11-56.81,55c0,0-6.72,11-20.16,28.7s2.44,47.65,6.11,65.37,11.2,32.38,10.79,37.67,9.76,15.48,18.93,11.41,11.21-14.94,11.21-14.94.81-69,11-81.18,27.48-24.22,37.46-29.32,12.22-14.66,12.22-15.89-12.62-68-12.62-68l-18.13,11.2"/><path class="cls-2" d="M217.45,380.07c7.66,15.75,4.85,32.89-6.28,38.31s-26.35-3-34-18.72-4.85-32.9,6.28-38.31,26.35,3,34,18.72m215.82-21.53c-2,17.38-13.58,30.34-25.87,28.93s-20.63-16.66-18.63-34.05,13.58-30.36,25.87-28.95,20.63,16.67,18.63,34.07"/><path class="cls-7" d="M265.57,327a167.92,167.92,0,0,0-23.2,3.07c-7.54,1.59-15.09,3.84-20.74,7.35l-.28.17a6.36,6.36,0,0,1-6.83-10.72c8.17-5.36,16.56-7.83,24.88-9.91a179.27,179.27,0,0,1,25.26-4.12A7.1,7.1,0,0,1,266,327h-.42m-6.47,30.26c.9,6.06-2.52,11.59-7.64,12.36s-10-3.55-10.89-9.62,2.52-11.61,7.64-12.37,10,3.56,10.89,9.63m71-38a166.84,166.84,0,0,1,23.29-2.26c7.69-.18,15.56.32,21.85,2.44l.32.1a6.35,6.35,0,0,0,4.23-12c-9.18-3.37-17.91-3.88-26.49-4a179.89,179.89,0,0,0-25.54,1.74,7.09,7.09,0,1,0,1.92,14.05l.18,0,.24,0m13.15,28c.5,6.12,5.09,10.74,10.25,10.31s8.92-5.72,8.42-11.84-5.09-10.73-10.24-10.31-8.93,5.72-8.43,11.84M273.05,494.78c3.22,2.18,14.4-.51,18-1.28,6.16-1.31,13.2-3.66,17.06-9,4.42-6.1,2.37-15.3,1.82-22.26-.16-2,.18-7.48-1.46-9.12l16.29-2.46c-1.45.23,2.88,23,3.56,24.83,1.84,5,6.82,7.76,11.72,9A50.74,50.74,0,0,0,356,485.56c1.29-.09,13.91-1.17,14-2.49a5,5,0,0,1-1.69,2.83c-8.23,8.42-17.34,16-26.44,23.43,0,0-43.17,3.67-44.39,2.44s-24.39-16.95-24.44-17"/><path class="cls-8" d="M353.45,434.8c-5.67,10.07-17.69,18.47-32.84,21.4-20.14,3.91-38.9-2.93-46.14-15.64,0-.18.2-.38.39-.58a50.8,50.8,0,0,1,8-5.58l59.13-7c4.6,1,8.71,2.75,11.44,7.44"/><path class="cls-7" d="M269.23,502.84c-1.27-12.32-4.79-51.73.35-63.46v-.8l1.76-2a54.59,54.59,0,0,1,9.18-6.47c9.58-5.61,21.53-8.84,34.44-9.29a127.58,127.58,0,0,1,20.79.71l1.66.2a56.2,56.2,0,0,1,5.65.86c4.74,1,10.7,3,14.61,9.74,4.06,6.93,5.8,14.42,7.49,21.68.43,1.86.87,3.73,1.34,5.57,2.82,11.28,3.7,20.83,2.75,30.05l-9.71-1c.81-8.05,0-16.53-2.52-26.65-.48-1.89-.93-3.83-1.39-5.76-1.58-6.84-3.08-13.29-6.4-19-1.61-2.77-3.92-4.2-8.23-5.12-1.58-.35-3.14-.52-4.72-.71l-1.71-.2a120.39,120.39,0,0,0-19.22-.65c-11.34.4-21.7,3.17-30,8a43,43,0,0,0-6.81,4.65l-.08.11c-2.85,4.35-2,33.75.48,58.45l-9.71,1M297.15,400a1.33,1.33,0,0,1-.62-2.51l10.5-5.6c3.35-1.77,5.21-5,4.74-8.2l-5.33-37a1.33,1.33,0,1,1,2.64-.38l5.33,37c.63,4.33-1.78,8.63-6.12,10.93l-10.51,5.6a1.3,1.3,0,0,1-.63.15"/><path class="cls-9" d="M357.17,1499.11a2.67,2.67,0,0,1-2.67-2.6c-1-44.15-3.75-115.86-6.64-123.53-9.69-5.79-57.55-20.72-81.89-27.93a2.66,2.66,0,0,1,1.51-5.11c2.95.87,72.45,21.49,83.75,28.85,1.77,1.15,4,2.58,6.59,65.94,1.28,30.65,2,61.34,2,61.65a2.67,2.67,0,0,1-2.61,2.73h-.06"/><path class="cls-5" d="M193.77,965.6a2.58,2.58,0,0,1-1.57-.52,2.61,2.61,0,0,1-1.1-2c-.38-7.94-11.07-134.59-11.18-135.87a2.67,2.67,0,0,1,5.32-.44c.41,4.86,9.4,111.43,11,132.77,14.94-4,79.13-21.09,104.82-26.17a2.67,2.67,0,1,1,1,5.23c-28.83,5.7-106.82,26.72-107.6,26.93a2.34,2.34,0,0,1-.69.09M123.9,1162.33c-8.46,0-16.17-.86-22.53-2.94C63.12,1146.85,36.94,1044,35.85,1039.67a2.67,2.67,0,0,1,5.17-1.3c.26,1,26.54,104.32,62,116,36,11.8,122.79-19,123.67-19.27a2.66,2.66,0,1,1,1.79,5c-3,1.08-62.83,22.26-104.59,22.26m209-60.32a2.67,2.67,0,0,1-1.2-5l81.15-40.67a2.67,2.67,0,0,1,2.39,4.78l-81.15,40.66a2.66,2.66,0,0,1-1.19.28M523,975.6a3.17,3.17,0,0,1-.43,0,2.68,2.68,0,0,1-2.21-3.06l22.43-139.93a2.66,2.66,0,0,1,5.26.84L525.6,973.36A2.66,2.66,0,0,1,523,975.6m39.41,172.65-.42,0-134.42-20.87a2.67,2.67,0,1,1,.82-5.27L562.78,1143a2.67,2.67,0,0,1-.4,5.3"/><path class="cls-2" d="M1235.17,327.82,1211,416.32l52.25,61.18,74.65-37.43-3.13-93.22-99.55-19"/><path class="cls-3" d="M1501.91,1108.89V1547.8h-222.6V1120l208-10.38,14.6-.74"/><path class="cls-3" d="M1351.65,1129.29l-7.61,21.07-7.5,20.78L1311.32,1241l-32,88.65-51.42,218.18h-201.4c.12.62.17.94.17.94l-27.65.66.19-1.6,11.1-89.36,1.62-13.1,4.35-35,4.08-32.82,3.07-24.8,14.4-116.06,3.93-31.59,9.4-75.73h300.5"/><path class="cls-10" d="M1216.65,400.06S1107.21,466.87,1059,490.35s-79.77,57.78-90.9,77.64-37.1,37.93-35.24,50.56-42.67,66.82-51.94,112-26,195-26,200.44,29.68,130,29.68,130,87.18,86.67,105.73,106.53,74.2,52.37,81.62,52.37,53.8-30.7,51.94-61.39-14.84-119.19-27.82-133.63c-10.16-11.29-22.58-21.49-31.95-36.62a87.24,87.24,0,0,1-7-13.94c-9.27-23.48,16.7-79.45,16.7-79.45s83.47-198.63,79.76-225.71,24.12-122.8,16.7-148.08,46.37-121,46.37-121"/><path class="cls-10" d="M1511.59,643.73s18.55,254.72,16.7,298-10.87,68.61.13,117.37,5.69,63.2,0,81.26-76.19,16.24-76.19,16.24l-330.3-19.22L997.76,958l161.39-502,57.5-56s65.86,56,120.57,22.57c0,0,152.11,85.77,173.44,102s.93,119.08.93,119.08"/><path class="cls-10" d="M1512.83,531.28s53.17,53,51.93,87.88,13.6,164.91,11.14,202.23,3.7,38.52,8.65,66.22,25.36,83.06,27.21,144.46,28.75,105.62,10.2,136.33-32.46,39.72-32.46,39.72-4.64-46.84-13-51.41-48.09-16.3-48.09-16.3l-44-486.35,28.45-122.78"/><path class="cls-6" d="M1223.21,340.13c-5.33-12.44,35.58,68.86,77.33,64.3,35.83-3.91,37.31-70.1,37.31-70.1s-12.72,20.9-50.52,20.94c-42.16.06-64.12-15.14-64.12-15.14"/><path class="cls-11" d="M1412,234.84c-1,17.86-12.81,31.75-26.47,31s-23.92-15.82-23-33.68,12.82-31.75,26.46-31,23.93,15.81,23,33.68m-197.69-10.92c-1,17.85-12.81,31.74-26.46,31s-23.93-15.83-23-33.69,12.81-31.75,26.45-31,23.93,15.81,23,33.68"/><path class="cls-2" d="M1400.82,234c-12.94,76-57,141.41-117.83,138.13s-92.71-59.89-102.3-150C1172.28,143,1237.75,80.68,1298.53,84s115.65,71.56,102.29,150"/><path class="cls-3" d="M1261.31,113.86c.18,5-.6,13.14-.11,15.58,1.35,6.72,4.88,13.26,10.6,16.37,4,2.15,8.51,2.47,12.94,2.59,16.15.42,33-6.54,48.51-5.82,7.13.34,12.55,5.5,18.6,9.54,11.19,7.48,31.8,5.72,31.81,5.73,10.56,14.76,11.58,36.76,22.34,50.39a62.62,62.62,0,0,0,7.36-5.78c14.47-12.18,15.33-14.4,10.63-33.52-3.74-15.3,6.54-21.84,11.75-34.1,7.16-16.82,19.59-32.4,6.92-45.51-16.47-17-28.44-30.73-38.93-53-5.85-12.44-13.71-26-26.55-28.43-20.7-3.85-36.46,18.89-57.3,5C1312.29,7.83,1305,1.32,1296.1.17c-9.22-1.17-18.23,3.75-25.74,9.67-9.37,7.4-17.88,16.08-28.81,20.84-18,7.83-38.78,11-53.58,25.61-9.9,9.79-15.37,23.06-20.36,36.16-4.24,11.1-11.73,23.85-12.83,35.77-1.24,13.43,6.58,42.2,17.21,50.7,5.13,4.1,8.92,13.9,8.92,13.9s16.33-30.06,19.08-36.93,16.2-24.61,25.48-31.12,12.36-8.89,19.68-12.32c4.82-2.27,15.85-7.6,16.16,1.41"/><path class="cls-12" d="M1241.12,218.86a9.58,9.58,0,1,1-9-10.09,9.56,9.56,0,0,1,9,10.09M1355.38,225a9.58,9.58,0,1,1-9.05-10.08,9.59,9.59,0,0,1,9.05,10.08"/><path class="cls-3" d="M1208.55,191.29a6.41,6.41,0,0,1-2.43-12.33c30.91-12.88,54.25-.55,55.23,0a6.42,6.42,0,0,1-6.08,11.31c-.9-.48-19.27-9.83-44.21.57a6.58,6.58,0,0,1-2.51.48m116.25,4.08a6.42,6.42,0,0,1-1.66-12.48c31.67-10.88,54.19,2.88,55.14,3.47a6.42,6.42,0,0,1-6.79,10.9c-.87-.53-18.61-11-44.16-2.22a6.74,6.74,0,0,1-2.53.33"/><path class="cls-12" d="M1388.6,220c0,5.49-1,17.42-4.58,25.81-2.78,6.52-6.62,10.8-12.34,13.45a33.24,33.24,0,0,1-7.18,2.33c-9.89,2.11-22.6,1.35-31.6-1.89-9.72-3.49-16.54-11.47-19.21-22.44-3-12.16-3.11-24-1.6-28.44a2.36,2.36,0,0,0,.32-.48c2.95-4.62,9.72-8.33,26.77-10.17,15.86-1.72,31.47,1.17,39.74,5.19.64.29,1.21.61,1.76.92,5.68,3.32,7.4,11.6,7.92,15.65Zm-119,14.89c-3.81,10.62-11.45,17.81-21.51,20.22-9.3,2.26-22,1.64-31.61-1.52a28,28,0,0,1-11.31-6.5,26.09,26.09,0,0,1-6.42-11.28c-2.66-8.72-2.33-20.69-1.75-26.16v-.05c.84-3.48,2.94-10.06,7.45-13.46a11.62,11.62,0,0,1,2.12-1.26c8.09-3.62,25.16-5.28,41.91-1.6s23.08,8.06,25.51,13a4.91,4.91,0,0,0,.28.5c1,4.55-.42,16.32-4.67,28.11Zm134.88-28.73v0a6.85,6.85,0,0,0-1.84-3.65,5.08,5.08,0,0,0-.75-.64h0a6.13,6.13,0,0,0-1.66-.92,69.06,69.06,0,0,0-9.5-2.76c-2.43-.54-6.31-1.28-11.12-2-4.6-.75-10.06-1.52-15.88-2.16h0a235.18,235.18,0,0,0-25.94-1.59h0a113.48,113.48,0,0,0-13.17.72c-1.34.17-2.59.33-3.75.52-15.32,2.35-16,6.12-15.89,8.21a.38.38,0,0,1-.6.36,25.38,25.38,0,0,0-21.68-1.17.39.39,0,0,1-.56-.43c.39-2.2,0-6.46-18.61-10.8-.36-.09-.74-.16-1.11-.24a128.27,128.27,0,0,0-15.6-2.24h0c-6.5-.57-13.27-.82-19.71-.86h0c-9.54-.07-18.32.32-24.43.74-2.36.18-4.3.34-5.74.51a81.13,81.13,0,0,0-10.3,1.81,6.09,6.09,0,0,0-3.18,2h0a6.38,6.38,0,0,0-1.63,4c0,.11,0,.24,0,.36a6.33,6.33,0,0,0,3.78,5.93,6.9,6.9,0,0,1,2.89,2.31c2.35,3.15,3,5.83,5.79,7.15a.37.37,0,0,1,.23.36c-.44,6.22-.37,16.84,2.07,24.86a28.14,28.14,0,0,0,7.11,12.28,30.21,30.21,0,0,0,12.11,7,63.94,63.94,0,0,0,16.17,2.88,59.4,59.4,0,0,0,16.79-1.31c10.81-2.6,19-10.29,23.12-21.64,3.72-10.32,5.22-20.46,5-26.4a2.35,2.35,0,0,0,2.4-.56h.11a4,4,0,0,0,.49-.44c1.31-1.2,5.43-4.23,13.57-3.79s11.92,3.88,13.08,5.22c.14.18,0,.34.12.49h-.26a3.07,3.07,0,0,0,2.2.88.4.4,0,0,1,.44.44c-.79,5.93-.13,16,2.39,26.3,2.84,11.72,10.24,20.26,20.72,24a60.38,60.38,0,0,0,16.59,3.1,63.69,63.69,0,0,0,16.39-1.12,36.2,36.2,0,0,0,8.42-2.86c5.8-2.94,9.87-7.52,12.74-14.23,3.29-7.72,4.46-18.25,4.7-24.49a.37.37,0,0,1,.27-.35c2.93-1,3.56-3.61,6.24-6.49a7,7,0,0,1,2.79-1.91,6.52,6.52,0,0,0,2.68-1.8,6.68,6.68,0,0,0,1.7-4.1c0-.11,0-.23,0-.36a6.43,6.43,0,0,0-.08-1"/><path d="M1283.83,319.17a39,39,0,0,1-20.23-5.58,1,1,0,0,1-.25-1.4,1,1,0,0,1,1.38-.25c.82.56,20.11,13.43,42.87-2.93a1,1,0,0,1,1.38.22,1,1,0,0,1-.22,1.4c-9,6.51-17.68,8.54-24.93,8.54m2.42-36.84a.91.91,0,0,1-.53-.15c-.2-.13-4.84-3.13-5.21-6.81-.34-3.3,1-20.08,1.1-20.79a1,1,0,0,1,1.08-.92,1,1,0,0,1,.91,1.09c-.49,6-1.36,17.92-1.11,20.42.24,2.26,3.19,4.61,4.3,5.32a1,1,0,0,1,.3,1.38,1,1,0,0,1-.84.46"/><path class="cls-13" d="M1046.7,780.14a2.61,2.61,0,0,1-1.14-.27,2.65,2.65,0,0,1-1.27-3.54c2.9-6.13,27.19-78.88,27.61-84.48a2.67,2.67,0,0,1,5.32.4c-.5,6.65-25.52,80.88-28.11,86.36a2.66,2.66,0,0,1-2.41,1.53m254.12-343.48c-10.34,0-22.87-1.92-37.65-7.31-1.94-.71-29.08-14.53-34.49-17.31a2.66,2.66,0,1,1,2.43-4.74c12.26,6.25,32.3,16.41,33.9,17.05,47.44,17.27,70.15-3.44,70.37-3.65a2.69,2.69,0,0,1,3.78.09,2.66,2.66,0,0,1-.1,3.76c-.7.68-13,12.11-38.24,12.11m-21.51,895.63a3,3,0,0,1-.91-.16,2.66,2.66,0,0,1-1.6-3.42l32-88.65a2.67,2.67,0,1,1,5,1.82l-32,88.65a2.65,2.65,0,0,1-2.5,1.76"/><path class="cls-2" d="M2211.76,498.56l-159.57,2.83L2063.47,371h134.2l14.09,127.59"/><path class="cls-7" d="M2244.13,273.89c0,85.21-51.29,154.29-114.58,154.29S2015,359.1,2015,273.89c0-35.38-8.51-89.59,6.36-115.6,21-36.68,71.2-38.69,108.21-38.69,36.83,0,80.4-8.58,101.37,27.76,15,26.12,13.21,90.89,13.21,126.53"/><path class="cls-7" d="M2261.59,209S2273.81,89.43,2255,69.64s-8.32-25.41-28.6-31.07-20.57-16-54-16c-5.76,0-8.57-3.76-40.54-3.76-10.34,0-27.27-8.48-51.24,4.71s-39.24-5.19-56.52,17.06-23.85,10.24-38.89,45.08,4.7,51.79,8.46,89.45,23.52,67.8,23.52,67.8l239-7.66,5.36-26.23"/><path class="cls-2" d="M2244.13,248.85c0,85.21-51.29,154.29-114.58,154.29S2015,334.06,2015,248.85c0-35.37-8.51-89.57,6.36-115.6,21-36.66,71.2-38.68,108.21-38.68,36.83,0,80.4-8.58,101.37,27.76,15,26.12,13.21,90.89,13.21,126.52"/><path class="cls-2" d="M2038.27,257.51c1.5,18.11-6.74,33.56-18.38,34.52s-22.28-12.94-23.78-31,6.75-33.55,18.4-34.51,22.28,12.93,23.76,31m180.56-1.33c-2.63,18,4.62,33.92,16.17,35.61s23.07-11.49,25.69-29.46-4.61-33.92-16.17-35.63-23.07,11.51-25.69,29.48"/><path class="cls-7" d="M2095.51,171.6c-2.77-.08-5.19,0-7.76.09s-5.05.29-7.57.52c-5,.49-10.07,1.19-15.07,2.17a112.2,112.2,0,0,0-14.93,4,68.88,68.88,0,0,0-14.29,6.85,5.94,5.94,0,0,0,4.84,10.72l.3-.09c4.26-1.2,8.6-2.16,13-3s9-1.39,13.55-1.88,9.2-.76,13.84-1c2.3-.12,4.62-.18,6.93-.25s4.71-.09,6.77-.13h.26a9,9,0,0,0,.1-18m119.68,13.58a68.79,68.79,0,0,0-14.31-6.85,110.87,110.87,0,0,0-14.92-4c-5-1-10-1.68-15.06-2.17-2.52-.23-5-.43-7.58-.52s-5-.17-7.77-.09a9,9,0,0,0,.13,18h.23c2.07,0,4.51,0,6.77.13s4.63.13,7,.25c4.63.22,9.25.54,13.83,1s9.09,1.12,13.56,1.88,8.77,1.77,13,3l.32.09a5.95,5.95,0,0,0,4.84-10.72m-135,47.36c0,5.72-3.73,10.36-8.33,10.36s-8.35-4.64-8.35-10.36,3.74-10.36,8.35-10.36,8.33,4.64,8.33,10.36m108.93,0c0,5.72-3.73,10.36-8.34,10.36s-8.34-4.64-8.34-10.36,3.74-10.36,8.34-10.36,8.34,4.64,8.34,10.36"/><path class="cls-14" d="M2129.74,295.59h0c-1.23,0-12-.62-14.47-4.08a2.65,2.65,0,0,1-.38-2.42c1.46-4.86,7-36.92,7-37.24a.65.65,0,0,1,.76-.55.67.67,0,0,1,.55.77c-.23,1.32-5.59,32.48-7.1,37.4a1.35,1.35,0,0,0,.22,1.27c1.74,2.48,10.28,3.39,13.42,3.52a.67.67,0,0,1,.64.71.65.65,0,0,1-.66.62"/><path class="cls-7" d="M2000.93,107.74s25.65,36.91,49.56,30.43,37.49-33.85,48.82-21.47,31,10.39,46.31.72,10.32,2.75,30.45,5.92,29.92-3.09,44.67,15.59,29.83,9.76,24.79-15.59-39.25-79.79-69.46-64.25-175.14,48.66-175.14,48.66m228,127.63c-.06.24-.11.48-.16.74-1.56,7.31-4.56,18.43-10.29,23.17a10.45,10.45,0,0,1-1.38,1c-7.81,4.65-23.26,7.19-36.2,5.55s-21.54-6.58-26.68-16.24a62.69,62.69,0,0,1-4.14-10.92c-2.84-9.79-4.83-22.17-2-27.52,4.11-7.81,25.86-10.49,35.92-11.11,13.34-.82,33.47-.41,41.47,5.15,7.21,5,5.57,19.23,4,27.69-.18.91-.36,1.76-.51,2.52Zm-126.43,14.19c-5.13,9.66-13.75,14.58-26.69,16.24s-28.38-.9-36.18-5.55a9.74,9.74,0,0,1-1.26-.87c-4.3-3.46-7.06-10.49-8.86-16.89-.71-2.57-1.27-5-1.71-7.12-.25-1.16-.52-2.5-.77-4h0c-1.5-8.56-2.56-21.48,4.25-26.2,8-5.56,28.13-6,41.47-5.15,10.05.62,31.79,3.3,35.9,11.11,3,5.61.64,19-2.44,28.92a59.1,59.1,0,0,1-3.71,9.52Zm141.29-53.72c-.49-.13-1-.25-1.49-.36a151.26,151.26,0,0,0-24.72-3.41,227.14,227.14,0,0,0-26.08-.11h0c-16.56.85-31.51,3.29-40.34,6.2-7.16,2.37-15.6,5.72-22.78,5.72s-15.62-3.35-22.78-5.72c-9.6-3.16-26.42-5.77-44.7-6.39h0a219.27,219.27,0,0,0-27.23.72,137.49,137.49,0,0,0-20.8,3.39h-.06c-2,.51-4,1.07-5.9,1.67l.94,17.06a6.64,6.64,0,0,1,4.82,1,5.77,5.77,0,0,1,1.1,1,7.74,7.74,0,0,1,1.5,2.9c.43,1.43,1,3.9,1.7,7,1,4.57,2.41,10.46,4.16,16.28,2.12,7.13,4.81,14.1,8.13,18.32a26.25,26.25,0,0,0,8.81,7c10.7,5.47,25.35,5.63,36.1,5.16,19.1-.81,31.61-9.32,36.94-23.7,1.27-3.42,2.4-6.71,3.43-9.79,3.36-10,5.73-17.86,8.33-20.84a7.93,7.93,0,0,1,11.09,0c2.54,2.88,4.84,10.4,8,20,1.12,3.35,2.36,6.93,3.73,10.67,5.35,14.38,17.86,22.89,37,23.7,10.69.46,25.24.31,35.92-5.08a26.05,26.05,0,0,0,9-7.1c4.42-5.59,7.7-16.06,10.06-25.27.84-3.24,1.56-6.32,2.17-9,.73-3.22,1.32-5.82,1.76-7.3a7.29,7.29,0,0,1,2.12-3.52,2.77,2.77,0,0,1,.55-.42,6.56,6.56,0,0,1,4.77-1l.92-17.06q-2.93-.94-6.07-1.71"/><path class="cls-1" d="M2376.28,501.34s94.5,39.13,113.79,61.95S2575,780.94,2575,883.18s15.43,259.21,0,288.75-84.88,176-131.17,209.86-65.26,31.28-65.26,31.28l-11.34-152.18,49.59-240.74-25.16-362.77-15.33-156"/><path class="cls-15" d="M2126.31,1331.09c-4.73,22.16-10.77,109.07-16.28,204.65-.21,4-.44,8-.68,12.06H1869.77c-2.63-145.42,2.27-285.11,2.27-285.11l6.32.36c2.08.15,4.64.29,7.62.51l.88.06a.34.34,0,0,1,.15,0c21.76,1.49,64.23,4.93,107.45,11.32,22.57,3.34,45.39,7.5,65.53,12.61,28.28,7.15,51.37,16.17,61.35,27.48a26.86,26.86,0,0,1,1.89,2.37h0c.37.55.72,1.08,1,1.63a16.35,16.35,0,0,1,2,12"/><path class="cls-15" d="M2378.52,1287.57V1547.8H2113.31l-2.29-10.28-1-1.78L2057.9,1440l-59.8-108.39-9.87-17.9-1.12-2-13.29-24.06h404.7"/><path class="cls-16" d="M2052.19,435h159.57l20.68,37.31,143.84,28.6s95.89,46,98.7,53.46,36.67,393,22.56,487.48-5.64,199-19.73,246.23S1894,1308,1894,1308s-115.62-701.37-79-733.7,220.92-82.49,227-93.26,10.1-46,10.1-46"/><path class="cls-1" d="M2497.54,1045.81c-14.09,95.14-5.64,200.27-19.74,247.83-5.08,17.13-79.6,40.34-176.21,42.79-73.16,1.86-158.77-19.69-231.49-21.44l-16.31-.36c-90.16-1.86-159.77-1-159.77-1s-115.62-705.94-79-738.48c32.16-28.55,177.86-70.89,217.32-88.19l114.35,201.88,99.88-213.5,129.68,26s95.89,46.3,98.7,53.82,36.67,395.52,22.56,490.65"/><path class="cls-17" d="M2375.72,927.55a2.66,2.66,0,0,1-2.67-2.64L2371.36,804c-.22-15.08-6.75-60.89-6.82-61.34a2.67,2.67,0,0,1,5.28-.76c.28,1.89,6.66,46.61,6.87,62l1.69,120.89a2.68,2.68,0,0,1-2.62,2.71h0"/><path class="cls-18" d="M2090.25,334.49c2.52,13,20.35,22.26,40.91,20.8,17.88-1.28,32.06-10.24,35.36-21.23l-76.27.43"/><path class="cls-17" d="M2148.34,691.73a2.65,2.65,0,0,1-2.32-1.36l-54.4-96a2.67,2.67,0,1,1,4.64-2.63l51.85,91.52,64.37-137.61a2.67,2.67,0,0,1,4.83,2.27L2150.75,690.2a2.7,2.7,0,0,1-2.31,1.53h-.1"/><path class="cls-5" d="M2286.89,1339.18a571,571,0,0,1-109.07-10.27c-99.52-19.53-167.13-13.42-167.8-13.36a2.67,2.67,0,0,1-.51-5.32c.68,0,69.07-6.23,169.33,13.44,102,20,190.33,4.2,191.13,4a2.67,2.67,0,0,1,1.2,5.2c-.48.1-34.22,6.29-84.28,6.29m-139.65,150.7a2.67,2.67,0,0,1-2.66-2.66v-72a2.71,2.71,0,0,1,.05-.56l8.47-39.86a2.66,2.66,0,1,1,5.21,1.1l-8.4,39.6v71.75a2.67,2.67,0,0,1-2.67,2.66"/><path class="cls-19" d="M833.16,375.88s33-12.21,62.89,3c31.8,16.26,47.94,32.51,55.25,169s6.5,204.73,7.31,215.3-260,7.31-260,7.31V430.92l134.53-55"/><path class="cls-8" d="M701.49,764.53S568.72,779,571.21,1007.79s-46.27,212.83-6.39,375.79c0,0,90.22,18.25,141.91-18.63l-5.24-450V764.53"/><path class="cls-16" d="M1025.12,1549.4l.19-1.6H599.45c4.26-25.45,14-63.09,25.94-104.57,1.11-3.84,2.24-7.74,3.38-11.65l.07-.23c4.21-14.4,8.67-29.13,13.21-43.89l.21-.72c20.67-67.19,43.25-134.69,55.61-171.06a.08.08,0,0,0,0-.06c2.92-8.57,5.26-15.4,6.86-20.09v0l2.53-7.25H984.39c.8,2.31,2.21,8.27,4.1,17.09v0q.72,3.3,1.51,7.12c5.47,26.37,13.91,70.45,22.82,118.17,0,0,0,0,0,0,.7,3.71,1.39,7.4,2.1,11.14,4,21.4,8,43.29,11.92,64.45.45,2.48.9,4.93,1.35,7.4q1.47,8,2.9,15.72c.07.45.16.91.24,1.36.89,4.85,1.78,9.65,2.62,14.36.84,4.53,1.65,9,2.46,13.34,8.59,47.15,15.09,83.24,16.19,89.36.12.62.17.94.17.94l-27.65.66"/><path class="cls-8" d="M707.53,769.85s-60.21,17.5-52.09,144.06-60.16,283.51,38.17,301.77l270.95-3.38a46.69,46.69,0,0,0,46.11-46.69V767l-56.79-9.85L707.53,769.85"/><path class="cls-2" d="M873.31,724.22l-98,2.95,3.36-84.2h89.8l4.88,81.25"/><path class="cls-8" d="M766.78,711.78H891.93c8.08,0,15.05,6,16.69,14.36l7.11,36.19L743.55,769l6.39-42c1.33-8.75,8.47-15.18,16.84-15.18"/><path class="cls-6" d="M870.26,673.44C864.69,685.25,854.49,697,840,698.61c-25,2.8-49.32-24.91-61.34-40.24-2.4-3.07-3.57-5.63-4.9-7.36a57.92,57.92,0,0,0,11,5.49c9.64,3.62,24.38,7.36,44,7.34,14.2,0,25.06-3.4,32.88-7.34l7.59-.12,1.06,17.06"/><path class="cls-2" d="M912.37,544.08c2.12,67.69-38.21,123.88-90.08,125.5S726.64,617.67,724.51,550s38.21-123.88,90.09-125.51,95.65,51.92,97.77,119.6"/><path class="cls-2" d="M933.77,551.49c0,14-12.16,27.54-22.18,27.54s-18.16-11.35-18.16-25.36,13.32-25.38,23.35-25.38,17,9.19,17,23.2"/><path d="M877.78,507.69a6.92,6.92,0,0,1-2.28-.36c-20.16-6.61-33.43-.6-34-.34a7.31,7.31,0,0,1-6.34-13.17c.76-.38,18.81-8.91,44.88-.38a7.31,7.31,0,0,1-2.27,14.25M737.67,519.28a7.3,7.3,0,0,1-4.2-13.29c.69-.48,17.24-11.68,44.31-7.19a7.3,7.3,0,1,1-2.39,14.41c-20.92-3.44-33.13,4.5-33.64,4.83a7.33,7.33,0,0,1-4.08,1.24M818.06,577h-7.31a1.22,1.22,0,0,1-1.22-1.21V548.32a1.22,1.22,0,0,1,2.44,0v26.2h6.09a1.22,1.22,0,1,1,0,2.44m-46.31-34.57c0,5.62-3.64,10.2-8.13,10.2s-8.12-4.58-8.12-10.2,3.64-10.22,8.12-10.22,8.13,4.58,8.13,10.22m94.45-10.22c0,5.64-3.64,10.22-8.13,10.22S850,537.81,850,532.17s3.64-10.2,8.12-10.2,8.13,4.56,8.13,10.2"/><path class="cls-8" d="M788.85,610.88c2.75,12.53,17.49,20.68,33.82,18.35,14.2-2,25-11.34,27-22.14l-60.86,3.79"/><path class="cls-19" d="M830.67,373.22c25.49,51.13-36.06,69.5-59.36,97.17-25.47,30.25-43.08,90-41.7,129.73,3.74,108.49,40.42,195.46-31.12,294.75,14.83-60.3-7.72-106.38-26.52-161.1-20.68-60.2-20.33-121.89-13.19-184.41,5.38-47.1,7.13-123.32,42.56-158.89,20.34-20.43,113.08-49.84,129.33-17.25"/><path class="cls-19" d="M824.78,424.88s11.4,20.06,36.94,32.38c36.17,17.46,43.91,74.91,43.91,74.91l14.69-8L891.9,417.26l-67.12,7.62"/><path class="cls-2" d="M1034.15,1430.39l-18-5.9a6.75,6.75,0,0,1,.25-7.26c2.48-4.09,8.38-4,11.26-3.66s8.83,2.53,8.83,2.53,7.06-8.07,14.28-11.72c0,0-1.88-9.91,1.46-16.36,0,0-7.4-7.55-6.59-18.68,0,0-.76-1.35-1.88-3.41-1,.42-2.77,1.26-4,1.93-1.65,1-1.79,6.31-1.14,9.53s1.37,13.44.35,19.28-5.48,9.8-12.14,9.59-6.87-6.75-8.16-12.53-.74-11.22-.27-21.64-2.25-15.63-4.24-25.47a67.71,67.71,0,0,1-1.26-17.73c.88-8.22,4.14-18.15,5-20.7-1-5.93-.89-11.5,1-15.66,3.39-7.45-7.61-61.87-7.61-61.87L1067,1237l-5.18,61.54s17.41,36.45,23.17,52.83,10,25,9.15,33.16c0,0-8.45,32.74-17.13,40-8.9,7.41-28.68,20.42-34.46,20.86-6.23.48-22.78-1.73-22.78-1.73a17.17,17.17,0,0,1-6.44-1.68s-2.66,0-.61-5.52,7.77-4.17,21.48-6"/><path class="cls-8" d="M980,761.3s77.83-5.57,105.24,103.57,24.53,150.08,23.08,219.6,79.64,206.78,6.05,295.24c0,0-62.31-31-120-42.81,0,0-10.09-11-4.31-125.73S980,761.3,980,761.3"/><path class="cls-6" d="M642.26,1386.74s-23.11,1.43-27.6,1.36c0,0,.33,32.24,13.8,43.21l.32.27,13.48-44.84"/><path class="cls-20" d="M680.18,1155.75a2.67,2.67,0,0,1-2.65-2.39c-.12-1.08-2.68-26.72,3.14-53.49,3-13.72.94-21.63-2.15-33.62A220.32,220.32,0,0,1,671,1020c-3-48.27,14.93-75.49,15.69-76.63a2.67,2.67,0,0,1,4.43,3c-.28.41-17.67,27.12-14.8,73.33a215.74,215.74,0,0,0,7.4,45.29c3.16,12.27,5.44,21.13,2.19,36.08-5.64,26-3.07,51.55-3,51.8a2.67,2.67,0,0,1-2.38,2.93,1.23,1.23,0,0,1-.27,0m302,41.06h-.28a2.65,2.65,0,0,1-2.37-2.92c2.18-21.05,3.82-40,1.89-58.71-1-9.81-2.23-19.65-3.41-29.17-2.6-21.15-5.3-43-5.87-65.23a2.67,2.67,0,0,1,5.33-.13c.57,21.95,3.13,42.72,5.84,64.71,1.18,9.54,2.39,19.41,3.41,29.28,2,19.21.32,38.45-1.89,59.79a2.66,2.66,0,0,1-2.65,2.39"/><path class="cls-21" d="M854.46,1218.34H693.61a2.67,2.67,0,0,1,0-5.33H854.46a2.67,2.67,0,0,1,0,5.33"/><path class="cls-2" d="M3051.73,361.17v119.3H2919.44V361.17h132.29"/><path class="cls-6" d="M3051.73,370.9V408c-9.7,9.8-22.94,17.57-39.59,19.07-35.76,3.21-70.73-23.35-92.7-43.91v-12.3l.3.09c16.14,4.8,40.79,9.81,73.64,9.77,23.75,0,41.93-4.52,55-9.77l3.3,0"/><path class="cls-11" d="M2895.29,259.37c1.65,19.93-6.14,36.85-17.4,37.78s-21.7-14.48-23.36-34.41,6.15-36.85,17.42-37.77,21.7,14.47,23.34,34.4m217.57,4.1c-2.36,19.87-13.37,34.88-24.59,33.55s-18.38-18.52-16-38.39,13.37-34.87,24.58-33.54,18.4,18.53,16,38.38"/><path class="cls-2" d="M3092.19,259.58c0,79.07-48.06,143.16-107.35,143.16s-107.37-64.09-107.37-143.16,48.06-143.16,107.37-143.16,107.35,64.1,107.35,143.16"/><path class="cls-1" d="M2958.42,49.32c-3.2,0-32-21.08-69,14.07s-28.55,28.33-38.77,37.7S2843,120.36,2829.32,129s-16.19,12.94-10.23,23.17,10.14,20.45-3,27.28S2797.8,188,2804.61,194s1.07,13.85,16.4,16.4,23.66,4.2,26.2,10.72,8.32,6.53,16,9.09,9,3.84,11.51,7.67,5.3,2.56,5.3,2.56,15.5-37.81,16.28-54,5.89.37,18-16.26,14.61-15.21,24.93-28.28,4.21-4.86,12.65-14.17,6.52-78.33,6.52-78.33"/><path class="cls-22" d="M2985.69,302.41c-1.24,0-2.13,0-2.45-.06A1.26,1.26,0,0,1,2982,301a1.27,1.27,0,0,1,1.34-1.23c5.06.24,13.86-.29,15.89-2.73s1-15.77-.28-24.56a1.28,1.28,0,0,1,2.53-.37c.55,3.73,3.11,22.5-.29,26.57-2.72,3.27-11.2,3.71-15.52,3.71"/><path class="cls-18" d="M2950.12,331.14h70.93s-22.57,37.17-57.43,13.11c-1.2-.83-13.5-13.11-13.5-13.11"/><path class="cls-22" d="M2959.45,212.68c-4.17.44-8.53.77-12.76,1.12s-8.48.69-12.67,1.14-8.3,1-12.4,1.56-8,1.42-12,2.23l-.26.05a5.17,5.17,0,0,1-6.12-4,5.23,5.23,0,0,1,2.62-5.62,57.34,57.34,0,0,1,13.32-5,92.07,92.07,0,0,1,13.7-2.1,111.65,111.65,0,0,1,13.68-.15,81.68,81.68,0,0,1,13.62,1.76,4.55,4.55,0,0,1-.51,9l-.2,0m50.8-9a82,82,0,0,1,13.61-1.76,111.56,111.56,0,0,1,13.68.15,92.4,92.4,0,0,1,13.71,2.1,57.51,57.51,0,0,1,13.32,5,5.18,5.18,0,0,1-3.5,9.64l-.25-.05c-4-.81-8-1.57-12-2.23s-8.22-1.12-12.41-1.56-8.41-.78-12.66-1.14-8.59-.68-12.75-1.12l-.2,0a4.55,4.55,0,0,1-.52-9M2939.68,248c0,6.41-4,11.61-8.84,11.61S2922,254.38,2922,248s3.94-11.61,8.84-11.61,8.84,5.19,8.84,11.61m105.81,0c0,6.41-4,11.61-8.84,11.61s-8.84-5.2-8.84-11.61,4-11.61,8.84-11.61,8.84,5.19,8.84,11.61"/><path class="cls-1" d="M2940.24,98.56s2.56,50.18,49.85,62.57c0,0,13.41-1.39,23.64,17.87s-.64,17.2,11.51,23.38,10.86-.69,30,7.56,12.79,13.92,26.84,22.1,41.55,2,45.38-4.91,10.22-8.93,12.14-15.81,0-37.14,0-37.14-23-16.49-30.68-35.74,2.56-27.51-14-39.88-42.19-23.39-47.29-28.88-11.51-33-33.24-31.63-48.57-.78-58.15,0-14.7,9-16,17.92,0,42.64,0,42.64"/><path class="cls-16" d="M3263.08,1547.8H3018c-5-64.13-9.31-129.74-9.94-168.82-.13-7.87,0-19.77,0-19.77l-11.58,188.59H2718c.22-53,3-117.62,10.6-194.18.28-2.61.54-5.25.82-7.88q3.87-38.15,9.45-80.18,2-15,4.21-30.58,2.39-16.5,5.06-33.58,1.93-12.63,4.06-25.56c.67-4,1.35-8.13,2-12.24h0c1.2-7.19,2.44-14.43,3.74-21.78q3.73-21.33,7.9-43.46h453.48s1.95,7.84,5,22c1.08,4.87,2.27,10.47,3.56,16.76a.45.45,0,0,1,0,.11c.24,1.1.46,2.24.69,3.37,2.76,13.41,5.91,29.62,9.19,48.12,2.56,14.37,5.18,30.12,7.76,47,4.24,27.8,8.34,58.63,11.69,91.36.55,5.34,1.08,10.76,1.59,16.21,6,64.63,8.85,135.61,4.22,204.58"/><path class="cls-15" d="M3173.7,485.72s99.25,31.08,119.5,49.21,89.13,172.88,89.13,254.08,16.2,205.87,0,229.34S3293.2,1158.19,3244.59,1185s-68.55,24.86-68.55,24.86L3164.15,1089l52.08-191.21L3189.8,609.67l-16.1-123.95"/><path class="cls-15" d="M2863.53,462.08c10.9-4.06,40.07-12.34,60.48-4.74s69.55,15.2,93,4.74,53.67-11.84,74.84-7.34,80.88,16.85,115.65,45.36,55.92,566.37,23.8,612c-11.21,15.93-67.12,70.22-155.62,54-70.72-13-150.91,43.87-226.36,5.14-58.93-30.26-105.94-30.58-105.94-30.58s-71-475.14-31.75-583.47c0,0,4.54-39.92,151.93-95"/><path class="cls-5" d="M3008,1361.87h-.09a2.64,2.64,0,0,1-2.57-2.74c.45-13.75,7.9-23.55,19.17-38.38,8.29-10.92,18.62-24.51,29.93-44.58a2.67,2.67,0,0,1,4.65,2.63c-11.49,20.38-21.94,34.13-30.34,45.18-11,14.52-17.68,23.28-18.08,35.32a2.67,2.67,0,0,1-2.67,2.57"/><path class="cls-15" d="M2865.41,469.4s-81,49.6-115.94,70.16-57.79,50.64-65.85,68-26.87,33.24-25.54,44.3-30.9,58.55-37.62,98.11-18.81,170.89-18.81,175.63,21.5,113.93,21.5,113.93,63.16,76,76.6,93.35,53.75,45.89,59.13,45.89,39-26.9,37.63-53.8-10.76-104.43-20.16-117.09C2769,998,2760,989.1,2753.2,975.83a83.91,83.91,0,0,1-5.08-12.21C2741.4,943,2760.21,894,2760.21,894s60.48-174.07,57.79-197.8,17.48-107.6,12.09-129.74,35.32-97.07,35.32-97.07"/><path class="cls-5" d="M2894.49,1186.36c-47.25,0-68.64-25.68-69.56-26.8a2.67,2.67,0,1,1,4.15-3.36c.32.39,22.25,26.4,69.85,24.74,41.21-1.42,62-6.42,78.69-10.42,3.46-.84,6.71-1.62,10-2.33,30.12-6.63,71.88-14.47,86.75-6.22a2.67,2.67,0,1,1-2.59,4.67c-14.83-8.23-66.14,3-83,6.74-3.25.72-6.48,1.5-9.89,2.31-16.94,4.07-38,9.13-79.76,10.59-1.57,0-3.12.08-4.63.08M2760.21,950.48a2.67,2.67,0,0,1-2.6-2.12c-6.07-28.73-3-54.55,9.2-76.77,11.22-20.42,18.44-41.12,26.1-63,4.49-12.84,9.13-26.11,14.61-39.2a2.67,2.67,0,0,1,4.92,2.06c-5.43,12.94-10,26.14-14.49,38.9-7.39,21.15-15,43-26.46,63.83-11.56,21.05-14.46,45.65-8.66,73.09a2.67,2.67,0,0,1-2.06,3.16,2.6,2.6,0,0,1-.56.06m214.73-480.17c-20.28,0-54.78-11.32-56.34-11.84a2.67,2.67,0,0,1,1.66-5.07c.4.14,40.35,13.24,58.44,11.4a143,143,0,0,1,21.62-.61c2.92.11,5.45.2,6.16-.25a2.66,2.66,0,0,1,2.88,4.48c-2.11,1.36-4.8,1.26-9.24,1.09a139.47,139.47,0,0,0-20.87.6,39.34,39.34,0,0,1-4.31.2"/><path class="cls-23" d="M3663.23,704.65c-22.8,29.32-58.64,53.2-96.65,54.28-3.61.09-9.8.52-18,1.17-60.47,4.79-231.4,22.73-306.91,30.75-22.55,2.38-36.59,3.92-36.66,3.92-9.05,1-15.89-32-16.22-36.85-1.14-16.82,4.85-33.14,13-47.56,8.28-14.7,26.38-31.78,19.7-50.24-5.89-16.39-28.53-19.82-38.37-34.17-7.07-10.36-5.93-24.63-.36-35.84,8.21-16.59,23.56-30.5,40.17-38.15,14.31-6.59,26.62-14.27,33-27.6a45.3,45.3,0,0,0,3.39-9.77c4.45-20.07.39-45.35,14.07-63,11.4-14.66,39.09-30.14,65.15-59.46q6.16-6.93,12.58-13c.94-.9,1.92-1.81,2.9-2.69,22-20.17,45.44-32.65,65.16-33.94,24.43-1.64,65.15,4.06,74.11,27.69s20.36,20.36,35,29.32,48,16.28,55.64,67.33c4.31,28.77,0,42.36-.16,52-.07,5.58,1.24,9.84,6.39,15a56.87,56.87,0,0,0,6.81,5.73c25,18.48,51,33.66,66.25,57.58s22.82,78.18,0,107.5"/><path class="cls-3" d="M3663.23,704.65c-22.8,29.32-58.64,53.2-96.66,54.27-3.62.1-9.8.53-18,1.17,2.12-12.05,3.93-26.32,2.89-35.89-2.08-19.55-3.32-10.88-7.65-23.92s8.69-33.66,7.58-48.87-18.43-24.94-26-52.12,8.94-44.17,8.94-44.17l49.54-36.27c-.07,5.58,1.23,9.84,6.37,15a58.85,58.85,0,0,0,6.82,5.73c25,18.47,51.05,33.66,66.26,57.58s22.8,78.18,0,107.5"/><path class="cls-2" d="M3479.28,744.12a158.91,158.91,0,0,1-32.34,10.29h-57.25a143.34,143.34,0,0,1-25.94-7.95l.68-30.92,4.65-73.21.37-5.8.84-13.22,95.69,2.57,1.59,12.48,3.09,24.42,6.78,53.3,1.84,28m56.78-193.91c-3.24,12.36-14.46,20.12-25,17.34s-16.55-15.06-13.29-27.42,14.45-20.12,25.05-17.33,16.55,15.05,13.29,27.41"/><path class="cls-18" d="M3655.47,773.91l-19.22,449.43-141.91,4.47-272.64,8.6L3200,766.56l164.45-51s39.16,29.36,113,.54c1.77-.71,9.56.77,21,3.61,17.78,4.4,44.37,12.09,70.65,20,11.94,8.71,24,17.28,47.8,19.84,11.66,1.25,25.37,6.71,38.58,14.38"/><path class="cls-3" d="M3333.09,580.72s8.7,44.19-7.06,72.42-22.26,29.88-15.74,55.64,7.91,20,6.51,35c-.71,8.08-39,29.93-75.18,47.07-22.55,2.38-36.59,3.92-36.66,3.92-9.05,1-15.89-32-16.22-36.85-1.14-16.82,4.85-33.14,13-47.56,8.28-14.7,26.38-31.78,19.7-50.24-5.89-16.39-28.53-19.81-38.37-34.17-7.07-10.36-5.93-24.63-.36-35.84,8.21-16.59,23.56-30.5,40.17-38.15,14.31-6.59,26.62-14.27,33-27.6a45.3,45.3,0,0,0,3.39-9.77c4.45-20.07.39-45.35,14.07-63,11.4-14.66,39.09-30.14,65.15-59.46q6.16-6.93,12.58-13c.94-.9,1.92-1.81,2.9-2.69l9.28,103.63-30.2,100.66"/><path class="cls-2" d="M3510.1,530.88c0,70.17-40.1,127.06-89.58,127.06S3326,604.32,3326,534.15s45-130.32,94.48-130.32,89.58,56.88,89.58,127.05"/><path d="M3384,497a68.92,68.92,0,0,0-8.39-1.94c-2.93-.49-5.92-.86-8.92-1.06a90.26,90.26,0,0,0-17.93.53h-.1a6.19,6.19,0,0,1-1.81-12.24,103,103,0,0,1,20.51-1.36,101.14,101.14,0,0,1,10.26.86,78.06,78.06,0,0,1,10.47,2.05,6.89,6.89,0,0,1-3.61,13.29l-.23-.06L3384,497m56-12.47a78.26,78.26,0,0,1,10.52-1.79c3.42-.36,6.85-.58,10.28-.6A103.53,103.53,0,0,1,3481.3,484a6.19,6.19,0,0,1-2.1,12.19l-.11,0a91,91,0,0,0-17.92-1,88.19,88.19,0,0,0-8.93.85,65.6,65.6,0,0,0-8.43,1.71l-.24.06a6.88,6.88,0,1,1-3.79-13.23l.26-.07m-61.33,32.7c0,5.3-3.78,9.6-8.43,9.6s-8.41-4.3-8.41-9.6,3.77-9.61,8.41-9.61,8.43,4.31,8.43,9.61m87.27,1.63c0,5.31-3.76,9.6-8.41,9.6s-8.43-4.29-8.43-9.6,3.78-9.6,8.43-9.6,8.41,4.29,8.41,9.6"/><path class="cls-2" d="M3347.83,534.13c6.82,10.8,4.42,24.58-5.39,30.79s-23.28,2.47-30.12-8.32-4.41-24.59,5.39-30.79,23.29-2.48,30.12,8.32"/><path class="cls-3" d="M3590.15,533.84c-14.29,12.51-31.46,27.33-33.35,30.17-3.26,4.88-32.15,5.48-27.4-2,1.57-2.48,7.85-39.49-14.14-36.23S3491.64,516,3486,507s-.84-32.58,0-41-11.4-20.88-26.88-15.18-47.23,19.55-56.19,13.84-1.63-23.61-27.7-19.54S3348.29,415,3348.29,415l2.82-35.84c22.82-21.75,47.46-35.27,68-36.65,24.42-1.62,65.16,4.08,74.12,27.69s20.36,20.36,35,29.32,48.05,16.3,55.65,67.35c6.77,45.28-7.89,52.93,6.21,67"/><path class="cls-1" d="M3654.55,1547.8H3226.31c1.79-65.78,17-142.35,32.55-204.58,1.54-6.23,3.1-12.32,4.64-18.21,10.8-41.39,21.06-74.51,26.29-90.76,2.26-7,3.57-10.89,3.57-10.89l57.79-3.11,16.46-.89,129-6.91,81.81-4.39s.33,6.34,1.53,17.06c2.48,22.34,8.7,63.74,23.43,106.29a333.29,333.29,0,0,0,19,44.85c21.22,40.93,29.25,113.64,32.14,171.54"/><path class="cls-10" d="M3346.75,714.74a2.15,2.15,0,0,1,2.53,2.34c-2.05,21.28-15.11,154.54-18.11,160.54-3.25,6.52-6.52,33.66-7.6,55.38s-1.09,29.32,0,59.72,4.35,63,7.6,83.63,16.83,93.66,17.64,114,1.64,29.44,5.71,47.31,10.59,34.94,9,47.17-170.22,61.89-170.22,61.89-17.11-11.4-19.55-29.32-13.84-26.88-16.29-45.61-8.68-128.65,4.35-181.61-35.84-92-33.67-100.73,1.63-161.53,17.11-176.2,54.34-50.49,84.7-53.74,41.53-16.29,57.83-26.88c13.84-9,48.82-16,59-17.91"/><path class="cls-13" d="M3300.77,995.71a2.64,2.64,0,0,1-2.18-1.15c-4.66-6.72-2.79-12-.82-17.58,2.22-6.23,4.71-13.3.47-26-3.8-11.43-9.74-20.43-15.49-29.12-6.63-10-12.89-19.52-14.47-31.07-1.36-10,2.43-24,6.08-37.6,3.94-14.52,8-29.54,4.48-36.13s-11.76-13.12-19.66-19.35-15.35-12.08-18-18.13c-1.68-3.77-1.41-11,20-29.6,11.17-9.73,23.09-18.2,23.21-18.28a2.67,2.67,0,1,1,3.08,4.35c-21.95,15.55-43.83,35.86-41.4,41.37,2.15,4.84,9.09,10.31,16.44,16.11,8.35,6.56,17,13.36,21.07,21,4.5,8.46.36,23.79-4,40-3.52,13-7.16,26.53-6,35.49,1.42,10.35,7.08,18.92,13.64,28.84,5.66,8.57,12.08,18.29,16.11,30.39,4.81,14.42,1.75,23.12-.51,29.45-1.82,5.17-2.93,8.31.18,12.77a2.68,2.68,0,0,1-2.2,4.19"/><path class="cls-10" d="M3145.21,814.93c-4.35,9.2-58.95,65.24-64.54,106.05s-25.13,56.12-23.49,107.13-4.89,68,17.92,93.53,22.8,47.61,39.09,79.93-1.49,47.61,31,68,45.54-88.44,70-108.84,9.77-17.47,0-51.25-50.5-66.1-52.12-78,10.3-27.07,13-36.45c2.19-7.58,22.82-184.52,26.07-206.73s-17.19-8.15-17.19-8.15l-39.75,34.75"/><path class="cls-13" d="M3222.46,1125h0Zm-32.9,90.9a2.43,2.43,0,0,1-1-.2,2.65,2.65,0,0,1-1.45-3.47c12-29.48,14.66-32.78,19.06-38.28a88.1,88.1,0,0,0,6.36-8.82,83,83,0,0,1,9.31-12.29c2.43-2.67,3.07-3.39,4-8.68,1.4-7.82-5.4-14.2-7.07-15.63-1.52-.63-2.05-3-5.89-23.64-3.14-16.81-16.55-45.93-32.64-54.61-7.86-4.23-16.9-10.36-17-20.27-.06-5.37,1.86-10.26,3.7-15l.46-1.2c9.4-24.33,13.5-50.6,16.27-73.08,1.16-9.33,1.43-18.84,1.69-28s.52-18.58,1.66-28a2.66,2.66,0,1,1,5.29.64c-1.11,9.14-1.36,18.45-1.63,27.48-.25,9.32-.53,19-1.72,28.53-2.81,22.8-7,49.47-16.58,74.35l-.47,1.21c-1.73,4.47-3.39,8.68-3.33,13,.09,7.07,7.22,11.87,14.2,15.63,17.77,9.58,32,40,35.36,58.34,2.77,14.85,3.82,19.3,4.18,20.6,2.4,2.08,10.67,10.08,8.78,20.58-1.18,6.54-2.4,8.11-5.31,11.31A77.12,77.12,0,0,0,3217,1168a95.6,95.6,0,0,1-6.7,9.28c-4.09,5.12-6.56,8.2-18.29,37a2.68,2.68,0,0,1-2.47,1.65"/><path class="cls-17" d="M3367.61,1222a2.67,2.67,0,0,1-.14-5.34l153.43-8.32a2.66,2.66,0,1,1,.3,5.32L3367.76,1222l-.15,0"/><path class="cls-10" d="M3685,1090.2c13,53,6.79,162.88,4.34,181.61s-13.85,27.69-16.29,45.61c-2,14.56-13.64,24.81-17.94,28.15a3.82,3.82,0,0,1-3.42.64c-18.22-5.42-166.87-49.89-168.41-61.36-1.62-12.23,4.9-29.33,9-47.19.8-3.58,1.51-6.81,2.08-9.85,2.32-12.09,3-21.17,3.63-37.44.81-20.36,14.37-93.38,17.64-114s6.51-53.21,7.61-83.61,1.08-38,0-59.74-4.36-48.86-7.61-55.38c-2.92-5.81-14.71-130.65-17.19-157.17a3.22,3.22,0,0,1,0-.76,3.79,3.79,0,0,1,4.44-3.36c12.06,2,43.18,7.87,56.17,16.32,3.49,2.28,6.76,4.67,10,7,11.94,8.71,24,17.28,47.8,19.84,11.66,1.25,25.37,6.71,38.58,14.38,19.86,11.54,38.64,28.08,48,43,17.5,27.84,10.85,67.86,12.24,99,1,23.09-2.64,51,3,73.56,2.16,8.69-46.69,47.77-33.66,100.73"/><path class="cls-13" d="M3537.1,997.72a2.66,2.66,0,0,1-2.2-4.18c3.11-4.47,2-7.59.16-12.76-2.24-6.35-5.3-15-.49-29.47,4-12.09,10.45-21.81,16.11-30.39,6.55-9.92,12.22-18.49,13.62-28.83,1.23-9-2.41-22.44-6-35.48-4.38-16.24-8.51-31.59-4-40,4.09-7.68,12.73-14.48,21.06-21,7.36-5.79,14.31-11.27,16.44-16.11,2.56-5.77-17.14-27.07-36.85-43.5a2.67,2.67,0,0,1,3.42-4.11c10.33,8.63,43.66,37.68,38.31,49.77-2.66,6.06-10.12,11.92-18,18.14s-16.09,12.66-19.66,19.36.54,21.6,4.47,36.12c3.66,13.56,7.44,27.57,6.08,37.61-1.57,11.55-7.84,21-14.46,31-5.75,8.71-11.69,17.71-15.51,29.12-4.22,12.71-1.73,19.77.48,26,2,5.6,3.84,10.88-.81,17.59a2.68,2.68,0,0,1-2.19,1.14"/><path class="cls-10" d="M3700.94,814.93c4.34,9.2,58.94,65.24,64.53,106.05s25.12,56.12,23.49,107.13,4.9,68-17.92,93.53-22.8,47.61-39.09,79.93,1.49,47.61-31,68-45.55-88.44-70-108.84-9.78-17.47,0-51.25,50.49-66.1,52.12-78-10.32-27.07-13-36.45c-2.2-7.58-22.81-184.52-26.07-206.73s17.19-8.15,17.19-8.15l39.76,34.75"/><path class="cls-13" d="M3617.59,1246.56a2.69,2.69,0,0,1-2.38-1.46c0-.09-4.92-9.52-16.11-19.78-1.84-1.7-3.65-3.23-5.43-4.72-9.44-8-17.58-14.86-14.62-34.12,1.68-10.94,5.08-15.83,8.68-21s7.52-10.83,10.57-24.23c6.16-27,46-131.68,47.68-136.12a2.66,2.66,0,1,1,5,1.91c-.4,1.08-41.37,108.74-47.45,135.38-3.28,14.42-7.59,20.62-11.39,26.1-3.38,4.86-6.3,9.06-7.8,18.78-2.5,16.31,3.59,21.45,12.8,29.24,1.82,1.52,3.67,3.09,5.59,4.85,12,11,17.05,20.88,17.27,21.31a2.68,2.68,0,0,1-1.18,3.59,2.85,2.85,0,0,1-1.2.28"/><path class="cls-17" d="M3428.33,1538.39a2.66,2.66,0,0,1-2.67-2.67v-158.1l-34.5-28.83a2.67,2.67,0,1,1,3.43-4.09l35.45,29.64a2.68,2.68,0,0,1,1,2v159.34a2.67,2.67,0,0,1-2.67,2.67"/><path class="cls-6" d="M3470.66,662.78c-7,9.5-17.45,17.63-31.25,19-28.16,2.77-55.65-23.36-70.33-39.44l.37-5.8c1.47.61,3.12,1.24,5,1.86,11.34,3.71,28.66,7.58,51.73,7.57,16.7,0,29.46-3.51,38.68-7.57l2.67,0,3.09,24.42"/><path d="M3416.85,557.11h-7.3a1.24,1.24,0,0,1-1.23-1.23V528.47a1.22,1.22,0,1,1,2.44,0v26.2h6.09a1.2,1.2,0,0,1,1.21,1.21,1.22,1.22,0,0,1-1.21,1.23"/><path class="cls-7" d="M3412.12,603.15a49.36,49.36,0,0,1-17-3.08,1.34,1.34,0,0,1-.8-1.71,1.32,1.32,0,0,1,1.71-.79c16.77,6.15,34.65,2.35,43.47-9.25a1.35,1.35,0,0,1,2.14,1.63c-6.52,8.54-17.51,13.2-29.52,13.2"/><path d="M3326,561.27a2,2,0,1,1-2-1.95,2,2,0,0,1,2,1.95m188.76.66a2,2,0,1,1-2-1.94,2,2,0,0,1,2,1.94m-196.49-6.29a1.46,1.46,0,1,1-2.92,0,1.46,1.46,0,1,1,2.92,0"/><path class="cls-2" d="M2732.87,684.74l-46.08,54.84L2672.14,757,2542,911.87,2549.69,696a33.68,33.68,0,0,0,31.61-33.62V589.81l92.4,3.38c1.24,8.3,2.5,16.64,3.74,25l.64,4.24c0,.2.06.4.1.61.72,4.77,1.14,10.41,1.69,16.32.09,1.21.2,2.42.33,3.65,2.14,21.33,6.74,44.61,31.92,43l20.75-1.27"/><path class="cls-6" d="M2679.87,639.32c-6.21,10.85-16.37,20.77-30.25,22.29-26.52,2.89-52.37-25.66-65.13-41.46a45.55,45.55,0,0,1-3.19-4.56v-1.84a59.21,59.21,0,0,0,9.72,4.48c10.23,3.73,25.86,7.58,46.68,7.56,15.08,0,26.6-3.5,34.92-7.56l4.82-.08.64,4.24c0,.2.06.4.1.61.72,4.77,1.14,10.41,1.69,16.32"/><path d="M2721.26,571.47s110.29-12,65.39-150S2603.75,316,2603.75,316s-102.12,41.61-114.46,129.09S2551,556.59,2551,556.59l170.28,14.88"/><path d="M2673.15,323.09s31.65-53.19,19.47-66.54-27.55-28.83-58.39-23.29-37.38,36.09-34.42,46.31,10.56,30.53,20.59,47,52.75-3.5,52.75-3.5"/><path class="cls-2" d="M2548.34,509.83c-6.32,66.22,29.72,123.84,80.48,128.66s97-44.92,103.33-111.14-29.72-123.84-80.48-128.68-97,44.93-103.33,111.16"/><path d="M2625.07,382.22s38.15,76.86,112.21,118.38,7.3-105.48,7.3-105.48l-119.51-12.9"/><path class="cls-2" d="M2520.26,502.47c0,15.12,13.12,29.72,23.93,29.72s19.6-12.26,19.6-27.37-14.37-27.38-25.2-27.38-18.33,9.91-18.33,25m230.52,7.68c0,15.12-13.11,29.72-23.94,29.72s-19.58-12.27-19.58-27.39,14.37-27.37,25.18-27.37,18.34,9.92,18.34,25"/><path d="M2593.91,499.6c0,5.86,3.63,10.59,8.1,10.59s8.09-4.73,8.09-10.59S2606.47,489,2602,489s-8.1,4.73-8.1,10.58m82,5.21c0,5.86,3.63,10.59,8.11,10.59s8.09-4.73,8.09-10.59-3.62-10.59-8.09-10.59-8.11,4.74-8.11,10.59m-60.39-29.71a8.54,8.54,0,0,1-2,0c-18.1-2.68-29.2,2.86-29.66,3.1-3,1.56-7,.9-8.75-1.49s-.84-5.57,2.16-7.17c.64-.34,15.69-8.14,39.11-4.7,3.44.51,5.6,3.23,4.81,6.06-.64,2.26-3,3.93-5.65,4.24m92.21,5.61a8,8,0,0,1-1.91-.65c-16.43-8.07-28.68-6.18-29.19-6.08-3.36.56-6.9-1.27-7.88-4.1s.91-5.57,4.26-6.17c.7-.12,17.42-3,38.66,7.45,3.12,1.55,4.35,4.78,2.74,7.23-1.3,2-4,2.84-6.68,2.32"/><path class="cls-22" d="M2643,541.89a6.44,6.44,0,0,1-3.87-1.25c-3.42-2.51-3.6-4.27-3.2-8.32l1.66-17a1.16,1.16,0,1,1,2.3.23l-1.66,17c-.35,3.62-.22,4.41,2.26,6.24a4.32,4.32,0,0,0,3.42.7l4.32-.9a1.16,1.16,0,1,1,.48,2.26l-4.34.91a7.06,7.06,0,0,1-1.37.13"/><path class="cls-18" d="M2606.69,571.51c2,13.06,16.67,22.37,33.62,21,14.73-1.19,26.44-10.07,29.21-21l-62.84,0"/><path class="cls-22" d="M2543,522.76a2.82,2.82,0,1,1-3.86,1,2.81,2.81,0,0,1,3.86-1m190.71,5.48a2.82,2.82,0,1,1-3.85,1,2.83,2.83,0,0,1,3.85-1"/><path class="cls-2" d="M2799.59,1322.91l-77.12,33.35-44.48-46.8,96.94-70,41.28,76.89-16.62,6.53m-436.78,185.37,17.4-5.7a6.51,6.51,0,0,0-.23-7c-2.4-3.94-8.1-3.82-10.88-3.53s-8.54,2.44-8.54,2.44-6.83-7.8-13.8-11.33c0,0,1.83-9.58-1.41-15.82a25.18,25.18,0,0,0,6.37-18s.73-1.29,1.81-3.29c.92.4,2.68,1.21,3.83,1.86,1.59.91,1.72,6.1,1.09,9.2s-1.32,13-.33,18.64,5.29,9.48,11.73,9.27,6.64-6.52,7.89-12.11.71-10.84.26-20.92,2.17-15.1,4.09-24.61a65.49,65.49,0,0,0,1.23-17.14c-.86-8-4-17.54-4.86-20,.94-5.74.86-11.14-1-15.15-3.27-7.2,7.36-59.8,7.36-59.8l-53.76,6.08,5,59.49s-16.83,35.24-22.4,51.07-9.63,24.18-8.86,32.05c0,0,8.18,31.65,16.56,38.65,8.61,7.16,27.73,19.74,33.32,20.16,6,.47,22-1.68,22-1.68a16.57,16.57,0,0,0,6.21-1.61s2.59,0,.59-5.35-7.51-4-20.75-5.8"/><path class="cls-24" d="M2456.12,734.62s-46.51,25.42-53.24,61.29-29.18,86.52-41.52,107.63-28.05,64.37-30.29,79.14-33.67,226.86-24.7,277.52,2,90,19.34,97.07,72.67,0,72.67,0l80.8-492.42-23.06-130.23"/><path class="cls-25" d="M2792.84,1547.8h-446.2c1-8.61,2.12-17.52,3.32-26.65,1.39-10.53,2.91-21.41,4.57-32.57,1-6.56,2-13.2,3.1-20v0c4.82-30.17,10.73-62.18,17.91-95.38h0c.47-2.15.95-4.3,1.42-6.46a.08.08,0,0,1,0,0c.51-2.32,1-4.61,1.55-6.94l.12-.55q3.42-15.17,7.22-30.61,2.22-9.1,4.6-18.27c6.42-24.81,13.56-50,21.56-75.29h0q2.13-6.7,4.32-13.46a25.53,25.53,0,0,1,4.84-3.2c7.83-4.29,26.54-11.8,65.8-15.6h.19c19.16-1.86,43.21-2.8,73.26-2.08,33.32.8,74,3.66,123.6,9.69,0,0,2.73,9.51,7.41,24.68,4.26,13.77,10.11,32.24,16.95,52.48,6.31,18.64,13.45,38.78,21,58.21.84,2.16,1.66,4.31,2.52,6.44,9.81,24.81,20.18,48,30.06,64.68,14.47,24.38,24.56,76.76,30.88,130.94"/><path class="cls-24" d="M2416.34,1079.08c1.12-11.23,7.27-86.41,7.27-86.41s4-106.6.23-143.64c-2.38-23.25,13.88-69.08,26.26-99.95,2.15-5.35,4.18-10.19,6-14.46l24.14-10,82.73-34.2s-16.48,124.16-7.5,191.49c0,0,131.66-137.62,158.59-200.46,0,0,89.77,16.42,112.21,13.46s73.35,10.46,94.27,167.56,88.29,239.38,91.29,267.85,18,59.82-17.95,95.73-95.78,91.26-103.24,101.77-80.79,28.41-80.79,28.41L2733.68,1218a8.67,8.67,0,0,1,4.16-12.16c12.79-5.52,35.72-15.5,42.08-18.67,9-4.49,66.57-34.38,66.57-34.38s-45.25-61.36-50.85-126.45c-2.52-29.08-3.68-52.07-4.17-68.68-.68,55.8-7.82,172.41-53.43,232.51l-24,44.89H2412s-1.5-9.44,0-17.76c2.7-15,3.2-127,4.32-138.22"/><path class="cls-26" d="M2336.91,1360.79a2.43,2.43,0,0,1-.71-.09l-16.24-4.45c-3.81-1-8.47-5.54-10.65-31.3-1.11-12.86-1.07-25.57-1.07-27l-6.13-72.74a1.27,1.27,0,0,1,0-.39l3.89-62.58c.15-1.36,13.79-123.12,18.12-150.19,4.52-28.33,11.4-62,28-96.54,16.48-34.33,44.2-103.63,44.48-104.33a2.67,2.67,0,0,1,5,2c-.27.7-28.07,70.16-44.61,104.65-16.29,34-23.07,67.12-27.53,95.08-4.32,26.95-17.94,148.57-18.08,149.8l-3.87,62.26,6.13,72.67v.25c-.24,27.61,3.34,52,7.8,53.21l16.23,4.44a2.67,2.67,0,0,1-.69,5.24m70.62-175.7a2.62,2.62,0,0,1-2-.87c-.87-.93-8.44-10.9-9.53-71.93s11.25-106.62,14.56-111.29a2.67,2.67,0,0,1,4.36,3.07c-2.26,3.63-14.68,47.3-13.59,108.12,1,57.73,7.77,67.94,8.2,68.53a2.67,2.67,0,0,1-2,4.37m148-300.48a3,3,0,0,1-.88-.15,2.67,2.67,0,0,1-1.76-2.23c-.1-.82-9.19-84.62,7-190.91a2.67,2.67,0,1,1,5.28.8c-13.67,89.9-9.16,163.49-7.47,183.89,22.11-22.42,128.89-132.65,154-195.53a2.67,2.67,0,0,1,5,2c-28.29,70.91-153.85,196.08-159.18,201.37a2.66,2.66,0,0,1-1.88.78m335.17,445.9a2.73,2.73,0,0,1-1.72-.62,2.68,2.68,0,0,1-.32-3.76c.26-.31,26.59-31.47,76.24-75.33l1.74-1.54c17.17-15.14,38.53-34,45.2-56.3,8.29-27.75,2.33-60.56-17.71-97.56-16.6-30.63-29.57-63.66-42.11-95.61q-2-5.16-4-10.29a2.66,2.66,0,1,1,5-2c1.35,3.43,2.7,6.85,4,10.29,12.48,31.79,25.4,64.68,41.84,95,20.74,38.28,26.84,72.46,18.12,101.62-7.1,23.77-29.1,43.17-46.77,58.77l-1.73,1.52c-49.34,43.59-75.44,74.47-75.7,74.77a2.66,2.66,0,0,1-2,1m-111.27-243.6a2.84,2.84,0,0,1-.5-.06,2.67,2.67,0,0,1-2.13-3.12c0-.08,1.57-8.3,4.87-28.73s7.13-96.7,7.17-97.48a2.68,2.68,0,0,1,2.8-2.52,2.65,2.65,0,0,1,2.52,2.79c-.15,3.16-3.89,77.44-7.23,98.06s-4.88,28.8-4.89,28.88a2.67,2.67,0,0,1-2.61,2.18"/><path class="cls-22" d="M2618.13,720.48a42.52,42.52,0,0,1-11.35-1.5c-24.89-6.84-33.2-35.48-33.28-35.77l1.29-.35c.08.28,8.18,28.22,32.35,34.84,22.2,6.08,50.52-7.09,84.17-39.17l.92,1c-28.57,27.24-53.44,41-74.1,41"/><path class="cls-6" d="M1893.17,1348.53s28,8.32,33.49,9.52c0,0-9.57,39.46-29.22,49.1l-.47.23-3.8-58.85"/><path class="cls-7" d="M1869,717.69s7.28-5.59,16.64,2.63c49.82,43.81,45,120,44.34,139.58s17.2,90.9,26.61,117.68,20.81,42.61,27.77,89.21,0,138.71.77,150.07,9.92,66.5,14.7,81.62c3.56,11.3-.56,45.63-13,51.15s-20.46,12.71-66.14,7.06-34-20.8-34.72-41.9-7.37-39.9-7.57-49.29-2-27.12-1.94-50.69,1.72-14.41-2.9-37.24-37.72-138.27-25.72-166.7-33-123.72-32.21-130.9-10.84-72.5-10.84-72.5,9.85-30.73,25.51-52.67,36.42-34.1,38.68-37.11"/><path class="cls-24" d="M1697.91,1117.71v86.87l-1.87,87.78-.29,13.42s0,0,0,0l-5.16,242H1481.51l20.4-246.18,2.26-27.3.62-7.5,1.12-13.4h0l4.35-52.48,4.17-50.48,2.72-32.74h180.76"/><path class="cls-24" d="M1910.57,1547.8H1701.48l-5.25-246.36s0,0,0,0l-.19-9-1.88-87.78v-86.87h180.77l10.6,128h0l1.48,18,.17,2v.07l1,11.56h0l5.94,71.54.08.9,4.69,56.72,11.72,141.39"/><path class="cls-27" d="M1491.65,620.49s-11.82-74,17.08-112.06,19.69-70.64,19.69-88.29,5.25-73.36,30.2-93.73,35.45-65.2,116.86-48.9c0,0,21-12.22,74.84-5.44s76.16,77.43,78.78,92.38,7.88,46.18,21,61.11,26.25,48.91,17.06,82.87-9.61,40.74,3.07,72,6.12,40.08,6.12,40.08-153.62,63.16-384.72,0"/><path class="cls-2" d="M1756.21,677.53H1628l13.06-89.44.88-6,1.82-12.56h96.65l2.07,14.1,3.77,25.84,9.92,68"/><path class="cls-6" d="M1746.29,609.49c-7.28,9.54-18,17.59-32.12,19-29.18,2.85-57.67-23.72-73.07-40.35l.88-6c1.32.5,2.8,1,4.46,1.57,11.83,3.84,29.9,7.83,54,7.81,17.42,0,30.74-3.62,40.38-7.81l1.75,0,3.77,25.84"/><path class="cls-2" d="M1797.11,454.24c0,81.69-48.95,147.91-109.34,147.91s-109.33-66.22-109.33-147.91,49-147.9,109.33-147.9,109.34,66.22,109.34,147.9"/><path class="cls-2" d="M1611.94,480.12c5.65,15.34.76,31.49-10.94,36.11s-25.74-4.08-31.38-19.41-.76-31.51,10.93-36.12,25.75,4.09,31.39,19.42m166.38,0c-5.64,15.35-.75,31.51,11,36.11s25.74-4.1,31.38-19.43.75-31.5-10.94-36.1-25.75,4.09-31.39,19.42"/><path class="cls-7" d="M1612.32,425.34a5.91,5.91,0,0,1-5.44-3.72,6.2,6.2,0,0,1,3.12-8c28.4-12.45,50-.84,50.88-.36a6.22,6.22,0,0,1,2.44,8.28,5.8,5.8,0,0,1-8,2.53c-.83-.44-17.8-9.25-40.72.82a6,6,0,0,1-2.31.48m104.92,0a5.93,5.93,0,0,1-5.44-3.72,6.21,6.21,0,0,1,3.13-8c28.4-12.45,50-.84,50.88-.36a6.24,6.24,0,0,1,2.44,8.28,5.79,5.79,0,0,1-8,2.53c-.83-.44-17.81-9.25-40.73.82a5.9,5.9,0,0,1-2.31.48m-73.44,31.78c0,7-4.32,12.62-9.64,12.62s-9.65-5.66-9.65-12.62,4.32-12.62,9.65-12.62,9.64,5.65,9.64,12.62m106.31,0c0,7-4.32,12.62-9.66,12.62s-9.64-5.66-9.64-12.62,4.32-12.62,9.64-12.62,9.66,5.65,9.66,12.62"/><path class="cls-27" d="M1675.48,319.62S1611.14,411.51,1602,459.3s-61.72,32.82-67,34.18,31.52-152.13,31.52-152.13l109-47.54v25.81m0-31.75v31.75a375.51,375.51,0,0,0,54.13,83.53c23,26.59,51.59,49.77,79.62,70.35,4.77,3.49,11.74,7.29,16.13,11.2-3.94-23.23-11.13-46.4-15.53-69.56-3.95-20.82-6.5-42.95-12.9-63.6-2-3.05-121.45-63.67-121.45-63.67"/><path class="cls-7" d="M1620.62,615.19s-5.95,11.68-5.95,22.76,9.51,40.58-15.47,41.82-106.94,55.36-128.39,71.35-15.5,50.43-15.5,50.43,44,445.65,51.14,453,109.7-98.72,148.06-94.1,26.16,13.22,41.61,12,21.41-13.54,26.17-12.92,20.8,3.69,28.54,9.22,37.46-3.08,57.68,15.37,101.07,80,101.07,80,10.71-87.35-7.13-114.41,7.13-265.73,0-274.34-13.08-152.55-13.08-152.55-75.21-40.29-99.29-41.21-17.84-59.05-17.84-59.05l-151.62-7.37m67.13-58.91a49.37,49.37,0,0,1-17-3.08,1.32,1.32,0,0,1-.8-1.71,1.35,1.35,0,0,1,1.72-.8c16.76,6.16,34.63,2.36,43.47-9.24a1.33,1.33,0,0,1,2.12,1.62c-6.52,8.56-17.5,13.21-29.5,13.21m103.52-1.19h-.83a19.05,19.05,0,0,1-16-9.57,1,1,0,0,1,.36-1.36,1,1,0,0,1,1.38.36,17,17,0,0,0,14.37,8.57,18.72,18.72,0,0,0,16.11-7.93c5.4-7.8,6.22-19.36,2-27.48-2.93-5.6-7.87-8.68-13.91-8.68a1,1,0,0,1,0-2c6.82,0,12.39,3.47,15.68,9.74,4.59,8.75,3.7,21.18-2.09,29.56a20.8,20.8,0,0,1-17,8.8m-207.31,0a20.8,20.8,0,0,1-17-8.8c-5-7.32-5.47-17.5-1-26,3.93-7.5,11-12,18.8-12a1,1,0,0,1,1,1,1,1,0,0,1-1,1c-7.19,0-13.39,4-17,10.9-4.09,7.82-3.73,17.19.91,23.9a18.76,18.76,0,0,0,16.11,7.93,17,17,0,0,0,14.38-8.57,1,1,0,0,1,1.36-.36,1,1,0,0,1,.38,1.36,19.07,19.07,0,0,1-16,9.57H1584m104.51-53.71h-1.6a9.76,9.76,0,0,1-9.6-9.94v-29a1.6,1.6,0,1,1,3.2,0v27.32a8.14,8.14,0,0,0,8,8.28,1.66,1.66,0,0,1,0,3.31"/><path class="cls-2" d="M1638.15,1230.53l-57.55-35,4-11.76c2.88-4.09,6.1-8.87,2.39-12.39a13.34,13.34,0,0,0-14.88-2l-64.32,32.71-45.49,37.21c29.55,29.14,51.39,31.38,64.68,28,1.4.62,2.77,1.24,4.2,1.8l49.36,19a10.67,10.67,0,0,0,13.18-2.56c2.14-2.75,3.44-7.41-5.77-13l9.21,5.59c4.74,2.5,10.86,1.24,13.86-2.84,2.78-3.6.85-9-4.44-13l7.14,3.51c5.16,2.72,12,1.11,14.79-3.77,2.45-4.23.53-9.43-3.91-12.12l-10.17-6.15,11.83,1.31c5.68,2.56,13.46,3.5,16.25-1.78,2.39-4.54.28-10-4.4-12.81"/><path class="cls-7" d="M1470.81,751.12S1345.28,870,1333.56,888c-11,16.9-18.39,21-26.07,27s-5.31,10.88-31.45,54.16c-19.51,32.28-31.17,85.81-17.76,122.81,13.88,38.28,50.84,64.4,85.1,83,37.14,20.21,44.22,26.76,73.86,44.78s37.39,21.47,53.57,38.76c9.66,10.34,32.65,15.26,46.49,19.75,6.09,2,13.56-4.84,15.36-11.19l26.86-91.17s-23.21-57.36-69.66-80.64c-26.49-13.26-57.44-27.16-72.57-40.52-12.29-10.84,32.18-33.9,41.41-41.85,7.6-6.54,37-33,42.2-34.77s20.92-77.08,20.92-78.21-51-148.78-51-148.78"/><path class="cls-28" d="M1689.16,1462.94h-.07a2.67,2.67,0,0,1-2.6-2.74c.16-6,4-146.78,7.75-163.16,4.24-18.64,38-53.78,39.43-55.27a2.67,2.67,0,1,1,3.84,3.71c-.34.36-34.15,35.54-38.07,52.73-3.61,15.89-7.57,160.67-7.61,162.13a2.67,2.67,0,0,1-2.67,2.6"/><path class="cls-29" d="M1477.93,1000.12a2.67,2.67,0,0,1-1.66-4.76,202.7,202.7,0,0,0,41.54-45c2-3,4-6.54,6-10.28,4.87-8.79,9.88-17.88,17.28-22.44a2.67,2.67,0,1,1,2.8,4.54c-6.2,3.83-10.88,12.28-15.41,20.47-2.12,3.85-4.14,7.51-6.32,10.71a207.78,207.78,0,0,1-42.63,46.16,2.72,2.72,0,0,1-1.65.58M1559,1144.23a2.66,2.66,0,0,1-2.4-1.5c-.08-.17-8.16-16.44-25.85-24-19.14-8.19-24.67-13.6-24.9-13.83a2.66,2.66,0,0,1,3.76-3.77s5.31,5,23.24,12.71c19.57,8.37,28.19,25.84,28.55,26.57a2.66,2.66,0,0,1-1.24,3.56,2.53,2.53,0,0,1-1.16.27m330.31,60.45a2.8,2.8,0,0,1-.64-.08,2.67,2.67,0,0,1-2-3.22c0-.13,3.25-14.05-1.11-39.45l-.94-5.4c-2.38-13.64-2.47-14.17-.92-21.33.61-2.83,1.45-6.71,2.48-13.32,3.69-23.61-17.68-106.38-17.91-107.21a2.67,2.67,0,0,1,5.17-1.35c.9,3.46,21.87,84.69,18,109.37-1.07,6.78-1.92,10.74-2.55,13.64-1.32,6.15-1.32,6.15,1,19.3l1,5.41c4.57,26.61,1.18,41,1,41.6a2.68,2.68,0,0,1-2.59,2"/></g></g></svg>